{
    "asset" : {
        "generator" : "Khronos glTF Blender I/O v1.0.5",
        "version" : "2.0"
    },
    "scene" : 0,
    "scenes" : [
        {
            "name" : "Scene",
            "nodes" : [
                0,
                1,
                5,
                6
            ]
        }
    ],
    "nodes" : [
        {
            "mesh" : 0,
            "name" : "Plane",
            "scale" : [
                7.89549446105957,
                7.89549446105957,
                7.89549446105957
            ]
        },
        {
            "name" : "Spot",
            "scale" : [
                0.6627175211906433,
                0.6627175211906433,
                0.6627175211906433
            ],
            "translation" : [
                0,
                12.205665588378906,
                0
            ]
        },
        {
            "mesh" : 1,
            "name" : "Sphere",
            "translation" : [
                0,
                -0.08594393730163574,
                -2.7193830013275146
            ]
        },
        {
            "mesh" : 2,
            "name" : "Sphere.001",
            "translation" : [
                -3.93050479888916,
                0.33009231090545654,
                0.5726668834686279
            ]
        },
        {
            "mesh" : 3,
            "name" : "Sphere.002",
            "translation" : [
                3.237405776977539,
                0.4046064615249634,
                2.439929485321045
            ]
        },
        {
            "children" : [
                2,
                3,
                4
            ],
            "name" : "Empty",
            "translation" : [
                0,
                1.7106646299362183,
                0
            ]
        },
        {
            "name" : "Camera",
            "rotation" : [
                0.583945631980896,
                0.025274885818362236,
                -0.02382035180926323,
                0.8110495209693909
            ],
            "translation" : [
                1.5173908472061157,
                7.8280534744262695,
                21.38619613647461
            ]
        }
    ],
    "animations" : [
        {
            "channels" : [
                {
                    "sampler" : 0,
                    "target" : {
                        "node" : 5,
                        "path" : "translation"
                    }
                },
                {
                    "sampler" : 1,
                    "target" : {
                        "node" : 5,
                        "path" : "rotation"
                    }
                },
                {
                    "sampler" : 2,
                    "target" : {
                        "node" : 5,
                        "path" : "scale"
                    }
                }
            ],
            "name" : "EmptyAction",
            "samplers" : [
                {
                    "input" : 24,
                    "interpolation" : "LINEAR",
                    "output" : 25
                },
                {
                    "input" : 24,
                    "interpolation" : "LINEAR",
                    "output" : 26
                },
                {
                    "input" : 24,
                    "interpolation" : "LINEAR",
                    "output" : 27
                }
            ]
        },
        {
            "channels" : [
                {
                    "sampler" : 0,
                    "target" : {
                        "node" : 6,
                        "path" : "translation"
                    }
                },
                {
                    "sampler" : 1,
                    "target" : {
                        "node" : 6,
                        "path" : "rotation"
                    }
                },
                {
                    "sampler" : 2,
                    "target" : {
                        "node" : 6,
                        "path" : "scale"
                    }
                }
            ],
            "name" : "CameraAction",
            "samplers" : [
                {
                    "input" : 24,
                    "interpolation" : "LINEAR",
                    "output" : 28
                },
                {
                    "input" : 24,
                    "interpolation" : "LINEAR",
                    "output" : 29
                },
                {
                    "input" : 24,
                    "interpolation" : "LINEAR",
                    "output" : 30
                }
            ]
        }
    ],
    "materials" : [
        {
            "doubleSided" : true,
            "name" : "plane",
            "pbrMetallicRoughness" : {
                "baseColorFactor" : [
                    0.04696183651685715,
                    0.04696183651685715,
                    0.04696183651685715,
                    1
                ],
                "metallicFactor" : 0,
                "roughnessFactor" : 0
            }
        },
        {
            "doubleSided" : true,
            "name" : "boll",
            "pbrMetallicRoughness" : {
                "baseColorFactor" : [
                    0.0020635100081562996,
                    0.002002830384299159,
                    0.002002830384299159,
                    1
                ],
                "metallicFactor" : 0,
                "roughnessFactor" : 0
            }
        },
        {
            "doubleSided" : true,
            "emissiveFactor" : [
                0.36348798871040344,
                0.7484014630317688,
                0.06832950562238693
            ],
            "name" : "light1",
            "pbrMetallicRoughness" : {}
        }
    ],
    "meshes" : [
        {
            "name" : "Plane",
            "primitives" : [
                {
                    "attributes" : {
                        "POSITION" : 0,
                        "NORMAL" : 1,
                        "TEXCOORD_0" : 2
                    },
                    "indices" : 3,
                    "material" : 0
                }
            ]
        },
        {
            "name" : "Sphere",
            "primitives" : [
                {
                    "attributes" : {
                        "POSITION" : 4,
                        "NORMAL" : 5,
                        "TEXCOORD_0" : 6
                    },
                    "indices" : 7,
                    "material" : 1
                },
                {
                    "attributes" : {
                        "POSITION" : 8,
                        "NORMAL" : 9,
                        "TEXCOORD_0" : 10
                    },
                    "indices" : 11,
                    "material" : 2
                }
            ]
        },
        {
            "name" : "Sphere.001",
            "primitives" : [
                {
                    "attributes" : {
                        "POSITION" : 12,
                        "NORMAL" : 13,
                        "TEXCOORD_0" : 14
                    },
                    "indices" : 7,
                    "material" : 1
                },
                {
                    "attributes" : {
                        "POSITION" : 15,
                        "NORMAL" : 16,
                        "TEXCOORD_0" : 17
                    },
                    "indices" : 11,
                    "material" : 2
                }
            ]
        },
        {
            "name" : "Sphere.002",
            "primitives" : [
                {
                    "attributes" : {
                        "POSITION" : 18,
                        "NORMAL" : 19,
                        "TEXCOORD_0" : 20
                    },
                    "indices" : 7,
                    "material" : 1
                },
                {
                    "attributes" : {
                        "POSITION" : 21,
                        "NORMAL" : 22,
                        "TEXCOORD_0" : 23
                    },
                    "indices" : 11,
                    "material" : 2
                }
            ]
        }
    ],
    "accessors" : [
        {
            "bufferView" : 0,
            "componentType" : 5126,
            "count" : 4,
            "max" : [
                1,
                0,
                1
            ],
            "min" : [
                -1,
                0,
                -1
            ],
            "type" : "VEC3"
        },
        {
            "bufferView" : 1,
            "componentType" : 5126,
            "count" : 4,
            "type" : "VEC3"
        },
        {
            "bufferView" : 2,
            "componentType" : 5126,
            "count" : 4,
            "type" : "VEC2"
        },
        {
            "bufferView" : 3,
            "componentType" : 5123,
            "count" : 6,
            "type" : "SCALAR"
        },
        {
            "bufferView" : 4,
            "componentType" : 5126,
            "count" : 592,
            "max" : [
                1.000000238418579,
                1,
                1.0000003576278687
            ],
            "min" : [
                -0.9999998211860657,
                -1,
                -1
            ],
            "type" : "VEC3"
        },
        {
            "bufferView" : 5,
            "componentType" : 5126,
            "count" : 592,
            "type" : "VEC3"
        },
        {
            "bufferView" : 6,
            "componentType" : 5126,
            "count" : 592,
            "type" : "VEC2"
        },
        {
            "bufferView" : 7,
            "componentType" : 5123,
            "count" : 2880,
            "type" : "SCALAR"
        },
        {
            "bufferView" : 8,
            "componentType" : 5126,
            "count" : 66,
            "max" : [
                1.000000238418579,
                0.06706235557794571,
                1.0000003576278687
            ],
            "min" : [
                -0.9999998211860657,
                7.549790126404332e-08,
                -1
            ],
            "type" : "VEC3"
        },
        {
            "bufferView" : 9,
            "componentType" : 5126,
            "count" : 66,
            "type" : "VEC3"
        },
        {
            "bufferView" : 10,
            "componentType" : 5126,
            "count" : 66,
            "type" : "VEC2"
        },
        {
            "bufferView" : 11,
            "componentType" : 5123,
            "count" : 192,
            "type" : "SCALAR"
        },
        {
            "bufferView" : 12,
            "componentType" : 5126,
            "count" : 592,
            "max" : [
                1.000000238418579,
                1,
                1.0000003576278687
            ],
            "min" : [
                -0.9999998211860657,
                -1,
                -1
            ],
            "type" : "VEC3"
        },
        {
            "bufferView" : 13,
            "componentType" : 5126,
            "count" : 592,
            "type" : "VEC3"
        },
        {
            "bufferView" : 14,
            "componentType" : 5126,
            "count" : 592,
            "type" : "VEC2"
        },
        {
            "bufferView" : 15,
            "componentType" : 5126,
            "count" : 66,
            "max" : [
                1.000000238418579,
                0.06706235557794571,
                1.0000003576278687
            ],
            "min" : [
                -0.9999998211860657,
                7.549790126404332e-08,
                -1
            ],
            "type" : "VEC3"
        },
        {
            "bufferView" : 16,
            "componentType" : 5126,
            "count" : 66,
            "type" : "VEC3"
        },
        {
            "bufferView" : 17,
            "componentType" : 5126,
            "count" : 66,
            "type" : "VEC2"
        },
        {
            "bufferView" : 18,
            "componentType" : 5126,
            "count" : 592,
            "max" : [
                1.000000238418579,
                1,
                1.0000003576278687
            ],
            "min" : [
                -0.9999998211860657,
                -1,
                -1
            ],
            "type" : "VEC3"
        },
        {
            "bufferView" : 19,
            "componentType" : 5126,
            "count" : 592,
            "type" : "VEC3"
        },
        {
            "bufferView" : 20,
            "componentType" : 5126,
            "count" : 592,
            "type" : "VEC2"
        },
        {
            "bufferView" : 21,
            "componentType" : 5126,
            "count" : 66,
            "max" : [
                1.000000238418579,
                0.06706235557794571,
                1.0000003576278687
            ],
            "min" : [
                -0.9999998211860657,
                7.549790126404332e-08,
                -1
            ],
            "type" : "VEC3"
        },
        {
            "bufferView" : 22,
            "componentType" : 5126,
            "count" : 66,
            "type" : "VEC3"
        },
        {
            "bufferView" : 23,
            "componentType" : 5126,
            "count" : 66,
            "type" : "VEC2"
        },
        {
            "bufferView" : 24,
            "componentType" : 5126,
            "count" : 91,
            "max" : [
                3.75
            ],
            "min" : [
                0
            ],
            "type" : "SCALAR"
        },
        {
            "bufferView" : 25,
            "componentType" : 5126,
            "count" : 91,
            "type" : "VEC3"
        },
        {
            "bufferView" : 26,
            "componentType" : 5126,
            "count" : 91,
            "type" : "VEC4"
        },
        {
            "bufferView" : 27,
            "componentType" : 5126,
            "count" : 91,
            "type" : "VEC3"
        },
        {
            "bufferView" : 28,
            "componentType" : 5126,
            "count" : 91,
            "type" : "VEC3"
        },
        {
            "bufferView" : 29,
            "componentType" : 5126,
            "count" : 91,
            "type" : "VEC4"
        },
        {
            "bufferView" : 30,
            "componentType" : 5126,
            "count" : 91,
            "type" : "VEC3"
        }
    ],
    "bufferViews" : [
        {
            "buffer" : 0,
            "byteLength" : 48,
            "byteOffset" : 0
        },
        {
            "buffer" : 0,
            "byteLength" : 48,
            "byteOffset" : 48
        },
        {
            "buffer" : 0,
            "byteLength" : 32,
            "byteOffset" : 96
        },
        {
            "buffer" : 0,
            "byteLength" : 12,
            "byteOffset" : 128
        },
        {
            "buffer" : 0,
            "byteLength" : 7104,
            "byteOffset" : 140
        },
        {
            "buffer" : 0,
            "byteLength" : 7104,
            "byteOffset" : 7244
        },
        {
            "buffer" : 0,
            "byteLength" : 4736,
            "byteOffset" : 14348
        },
        {
            "buffer" : 0,
            "byteLength" : 5760,
            "byteOffset" : 19084
        },
        {
            "buffer" : 0,
            "byteLength" : 792,
            "byteOffset" : 24844
        },
        {
            "buffer" : 0,
            "byteLength" : 792,
            "byteOffset" : 25636
        },
        {
            "buffer" : 0,
            "byteLength" : 528,
            "byteOffset" : 26428
        },
        {
            "buffer" : 0,
            "byteLength" : 384,
            "byteOffset" : 26956
        },
        {
            "buffer" : 0,
            "byteLength" : 7104,
            "byteOffset" : 27340
        },
        {
            "buffer" : 0,
            "byteLength" : 7104,
            "byteOffset" : 34444
        },
        {
            "buffer" : 0,
            "byteLength" : 4736,
            "byteOffset" : 41548
        },
        {
            "buffer" : 0,
            "byteLength" : 792,
            "byteOffset" : 46284
        },
        {
            "buffer" : 0,
            "byteLength" : 792,
            "byteOffset" : 47076
        },
        {
            "buffer" : 0,
            "byteLength" : 528,
            "byteOffset" : 47868
        },
        {
            "buffer" : 0,
            "byteLength" : 7104,
            "byteOffset" : 48396
        },
        {
            "buffer" : 0,
            "byteLength" : 7104,
            "byteOffset" : 55500
        },
        {
            "buffer" : 0,
            "byteLength" : 4736,
            "byteOffset" : 62604
        },
        {
            "buffer" : 0,
            "byteLength" : 792,
            "byteOffset" : 67340
        },
        {
            "buffer" : 0,
            "byteLength" : 792,
            "byteOffset" : 68132
        },
        {
            "buffer" : 0,
            "byteLength" : 528,
            "byteOffset" : 68924
        },
        {
            "buffer" : 0,
            "byteLength" : 364,
            "byteOffset" : 69452
        },
        {
            "buffer" : 0,
            "byteLength" : 1092,
            "byteOffset" : 69816
        },
        {
            "buffer" : 0,
            "byteLength" : 1456,
            "byteOffset" : 70908
        },
        {
            "buffer" : 0,
            "byteLength" : 1092,
            "byteOffset" : 72364
        },
        {
            "buffer" : 0,
            "byteLength" : 1092,
            "byteOffset" : 73456
        },
        {
            "buffer" : 0,
            "byteLength" : 1456,
            "byteOffset" : 74548
        },
        {
            "buffer" : 0,
            "byteLength" : 1092,
            "byteOffset" : 76004
        }
    ],
    "buffers" : [
        {
            "byteLength" : 77096,
            "uri" : "data:application/octet-stream;base64,"
        }
    ]
}
